<?xml version="1.0" standalone="no"?><!DOCTYPE svg PUBLIC "-//W3C//DTD SVG 1.1//EN" "http://www.w3.org/Graphics/SVG/1.1/DTD/svg11.dtd"><svg t="1595496803660" class="icon" viewBox="0 0 1024 1024" version="1.1" xmlns="http://www.w3.org/2000/svg" p-id="2143" xmlns:xlink="http://www.w3.org/1999/xlink" width="32" height="32"><defs><style type="text/css"></style></defs><path d="M64 224v576h896V224H64z m64 64h768v448H128V288z m64 64v320h96c52.928 0 96-43.072 96-96v-128c0-52.928-43.072-96-96-96H192z m320 0c-35.296 0-64 28.704-64 64v192c0 35.296 28.704 64 64 64h64v-64h-64v-64h64v-64h-64v-64h64v-64h-64z m118.112 0l66.688 288.8a40.256 40.256 0 0 0 78.4 0L841.888 352h-65.696L736 526.08 695.808 352h-65.696zM256 416h32a32 32 0 0 1 32 32v128a32 32 0 0 1-32 32H256v-192z" p-id="2144" fill="#1296db"></path></svg>